<svg xmlns="http://www.w3.org/2000/svg" viewBox="0 0 512 512">
  <defs>
    <linearGradient id="bg" x1="0%" y1="0%" x2="100%" y2="100%">
      <stop offset="0%" style="stop-color:#4A90D9"/>
      <stop offset="100%" style="stop-color:#2E5FA1"/>
    </linearGradient>
  </defs>
  <!-- Rounded square background -->
  <rect x="32" y="32" width="448" height="448" rx="64" ry="64" fill="url(#bg)"/>
  <!-- Document shape -->
  <path d="M160 96 h144 l80 80 v240 a32 32 0 0 1-32 32 H160 a32 32 0 0 1-32-32 V128 a32 32 0 0 1 32-32z" fill="#ffffff" opacity="0.95"/>
  <!-- Page fold -->
  <path d="M304 96 v48 a32 32 0 0 0 32 32 h48z" fill="#d0d7de"/>
  <!-- Markdown down-arrow (M shape) -->
  <g fill="#2E5FA1">
    <!-- M -->
    <path d="M164 248 v80 h20 v-52 l24 32 l24-32 v52 h20 v-80 h-20 l-24 32 l-24-32z"/>
    <!-- Down arrow -->
    <path d="M296 248 v48 h-20 l32 32 l32-32 h-20 v-48z"/>
  </g>
  <!-- Decorative lines representing text -->
  <rect x="164" y="356" width="120" height="8" rx="4" fill="#2E5FA1" opacity="0.3"/>
  <rect x="164" y="376" width="80" height="8" rx="4" fill="#2E5FA1" opacity="0.2"/>
</svg>
